<svg width="196" height="164" viewBox="0 0 196 164" fill="none" xmlns="http://www.w3.org/2000/svg">
<path d="M65.4706 54.4808L65.6532 48.0882L59.2605 47.9056L59.4022 42.9429L65.7949 43.1254L65.9774 36.7328L70.9401 36.8745L70.7576 43.2671L77.1502 43.4497L77.0085 48.4124L70.6159 48.2299L70.4334 54.6225L65.4706 54.4808Z" fill="#6ECC66"/>
<path d="M95.2283 151.558L95.3214 148.299L92.083 148.206L92.1454 146.019L95.3838 146.112L95.4763 142.873L97.6632 142.936L97.5708 146.174L100.809 146.267L100.747 148.454L97.5083 148.361L97.4153 151.621L95.2283 151.558Z" fill="#6ECC66"/>
<path d="M141.325 161.875L141.508 155.482L135.115 155.299L135.257 150.337L141.65 150.519L141.832 144.127L146.795 144.268L146.612 150.661L153.005 150.843L152.863 155.806L146.471 155.624L146.288 162.016L141.325 161.875Z" fill="#B999FF"/>
<path d="M33.6283 94.7861L33.8109 88.3934L27.4182 88.2109L27.5599 83.2482L33.9526 83.4307L34.1351 77.038L39.0978 77.1797L38.9153 83.5724L45.308 83.7549L45.1663 88.7177L38.7736 88.5351L38.5911 94.9278L33.6283 94.7861Z" fill="#B999FF"/>
<path d="M185.801 142.744L185.894 139.485L182.655 139.393L182.718 137.206L185.956 137.298L186.049 134.06L188.236 134.122L188.143 137.361L191.382 137.453L191.319 139.64L188.081 139.548L187.988 142.807L185.801 142.744Z" fill="#F2F2F2"/>
<path d="M14.5745 154.506L14.7141 149.617L9.8565 149.478L9.95017 146.198L14.8078 146.337L14.9464 141.479L18.2269 141.573L18.0882 146.43L22.9458 146.569L22.8521 149.849L17.9945 149.711L17.8549 154.6L14.5745 154.506Z" fill="#F58756"/>
<path d="M9.46965 50.2511L9.65218 43.8584L3.25951 43.6759L3.40121 38.7132L9.79388 38.8957L9.9764 32.503L14.9391 32.6447L14.7566 39.0374L21.1493 39.2199L21.0076 44.1827L14.6149 44.0001L14.4324 50.3928L9.46965 50.2511Z" fill="#73CDFF"/>
<path d="M120.517 98.7789L120.656 93.8897L115.799 93.751L115.893 90.4706L120.75 90.6093L120.889 85.7517L124.169 85.8454L124.031 90.703L128.888 90.8417L128.794 94.1221L123.937 93.9834L123.797 98.8725L120.517 98.7789Z" fill="#73CDFF"/>
<path d="M66.1979 121.146L66.3804 114.753L59.9878 114.571L60.1295 109.608L66.5221 109.791L66.7047 103.398L71.6674 103.54L71.4849 109.932L77.8775 110.115L77.7358 115.078L71.3432 114.895L71.1606 121.288L66.1979 121.146Z" fill="#F179A2"/>
<path d="M101.84 15.8169L101.979 10.9278L97.1219 10.7891L97.2156 7.50862L102.073 7.64731L102.212 2.78973L105.492 2.8834L105.354 7.74098L110.211 7.87968L110.117 11.1601L105.26 11.0214L105.12 15.9105L101.84 15.8169Z" fill="#F179A2"/>
<path d="M165.281 59.9613L165.463 53.5686L159.071 53.3861L159.212 48.4234L165.605 48.6059L165.788 42.2132L170.75 42.3549L170.568 48.7476L176.961 48.9301L176.819 53.8928L170.426 53.7103L170.244 60.103L165.281 59.9613Z" fill="#F58756"/>
</svg>
