<svg width="134" height="204" viewBox="0 0 134 204" fill="none" xmlns="http://www.w3.org/2000/svg">
<path d="M50.393 192.126L56.25 194.217V202.751C56.25 202.916 56.1842 203.075 56.0669 203.192C55.9497 203.31 55.7908 203.376 55.625 203.376H53.125C52.9592 203.376 52.8003 203.31 52.6831 203.192C52.5658 203.075 52.5 202.916 52.5 202.751V198.376H46.25V202.751C46.25 202.916 46.1842 203.075 46.0669 203.192C45.9497 203.31 45.7908 203.376 45.625 203.376H43.125C42.9592 203.376 42.8003 203.31 42.6831 203.192C42.5658 203.075 42.5 202.916 42.5 202.751V194.395C41.0484 193.877 40 192.503 40 190.876C40 190.544 40.1317 190.226 40.3661 189.992C40.6005 189.757 40.9185 189.626 41.25 189.626C41.5815 189.626 41.8995 189.757 42.1339 189.992C42.3683 190.226 42.5 190.544 42.5 190.876C42.5006 191.207 42.6325 191.524 42.8668 191.759C43.1011 191.993 43.4187 192.125 43.75 192.126H50.393ZM60 187.751V189.001C60 189.664 59.7366 190.299 59.2678 190.768C58.7989 191.237 58.163 191.501 57.5 191.501H56.25V192.89L51.25 191.105V185.251C51.25 184.694 51.9227 184.415 52.3168 184.809L53.3824 185.876H55.4773C55.9035 185.876 56.4051 186.185 56.5953 186.567L56.875 187.126H59.375C59.5408 187.126 59.6997 187.191 59.8169 187.309C59.9342 187.426 60 187.585 60 187.751ZM55.625 187.751C55.625 187.627 55.5883 187.506 55.5197 187.403C55.451 187.3 55.3534 187.22 55.2392 187.173C55.125 187.126 54.9993 187.113 54.8781 187.138C54.7568 187.162 54.6455 187.221 54.5581 187.309C54.4706 187.396 54.4111 187.507 54.387 187.629C54.3629 187.75 54.3753 187.875 54.4226 187.99C54.4699 188.104 54.55 188.201 54.6528 188.27C54.7555 188.339 54.8764 188.376 55 188.376C55.1658 188.376 55.3247 188.31 55.4419 188.192C55.5592 188.075 55.625 187.916 55.625 187.751Z" fill="#F0AA18"/>
<path d="M124.393 8.12557L130.25 10.2174V18.7506C130.25 18.9163 130.184 19.0753 130.067 19.1925C129.95 19.3097 129.791 19.3756 129.625 19.3756H127.125C126.959 19.3756 126.8 19.3097 126.683 19.1925C126.566 19.0753 126.5 18.9163 126.5 18.7506V14.3756H120.25V18.7506C120.25 18.9163 120.184 19.0753 120.067 19.1925C119.95 19.3097 119.791 19.3756 119.625 19.3756H117.125C116.959 19.3756 116.8 19.3097 116.683 19.1925C116.566 19.0753 116.5 18.9163 116.5 18.7506V10.3947C115.048 9.87713 114 8.50291 114 6.87557C114 6.54405 114.132 6.2261 114.366 5.99168C114.601 5.75726 114.918 5.62557 115.25 5.62557C115.582 5.62557 115.899 5.75726 116.134 5.99168C116.368 6.2261 116.5 6.54405 116.5 6.87557C116.501 7.2069 116.633 7.52448 116.867 7.75877C117.101 7.99305 117.419 8.12495 117.75 8.12557H124.393ZM134 3.75057V5.00057C134 5.66361 133.737 6.29949 133.268 6.76833C132.799 7.23718 132.163 7.50057 131.5 7.50057H130.25V8.89041L125.25 7.10486V1.25057C125.25 0.693926 125.923 0.41502 126.317 0.80877L127.382 1.87557H129.477C129.904 1.87557 130.405 2.18494 130.595 2.56658L130.875 3.12557H133.375C133.541 3.12557 133.7 3.19142 133.817 3.30863C133.934 3.42584 134 3.58481 134 3.75057ZM129.625 3.75057C129.625 3.62695 129.588 3.50612 129.52 3.40334C129.451 3.30056 129.353 3.22045 129.239 3.17314C129.125 3.12584 128.999 3.11346 128.878 3.13758C128.757 3.16169 128.645 3.22122 128.558 3.30863C128.471 3.39603 128.411 3.5074 128.387 3.62864C128.363 3.74987 128.375 3.87554 128.423 3.98974C128.47 4.10395 128.55 4.20156 128.653 4.27024C128.756 4.33891 128.876 4.37557 129 4.37557C129.166 4.37557 129.325 4.30972 129.442 4.19251C129.559 4.0753 129.625 3.91633 129.625 3.75057Z" fill="#73CDFF"/>
<path d="M77.393 151.126L83.25 153.217V161.751C83.25 161.916 83.1842 162.075 83.0669 162.192C82.9497 162.31 82.7908 162.376 82.625 162.376H80.125C79.9592 162.376 79.8003 162.31 79.6831 162.192C79.5658 162.075 79.5 161.916 79.5 161.751V157.376H73.25V161.751C73.25 161.916 73.1842 162.075 73.0669 162.192C72.9497 162.31 72.7908 162.376 72.625 162.376H70.125C69.9592 162.376 69.8003 162.31 69.6831 162.192C69.5658 162.075 69.5 161.916 69.5 161.751V153.395C68.0484 152.877 67 151.503 67 149.876C67 149.544 67.1317 149.226 67.3661 148.992C67.6005 148.757 67.9185 148.626 68.25 148.626C68.5815 148.626 68.8995 148.757 69.1339 148.992C69.3683 149.226 69.5 149.544 69.5 149.876C69.5006 150.207 69.6325 150.524 69.8668 150.759C70.1011 150.993 70.4187 151.125 70.75 151.126H77.393ZM87 146.751V148.001C87 148.664 86.7366 149.299 86.2678 149.768C85.7989 150.237 85.163 150.501 84.5 150.501H83.25V151.89L78.25 150.105V144.251C78.25 143.694 78.9227 143.415 79.3168 143.809L80.3824 144.876H82.4773C82.9035 144.876 83.4051 145.185 83.5953 145.567L83.875 146.126H86.375C86.5408 146.126 86.6997 146.191 86.8169 146.309C86.9342 146.426 87 146.585 87 146.751ZM82.625 146.751C82.625 146.627 82.5883 146.506 82.5197 146.403C82.451 146.3 82.3534 146.22 82.2392 146.173C82.125 146.126 81.9993 146.113 81.8781 146.138C81.7568 146.162 81.6455 146.221 81.5581 146.309C81.4706 146.396 81.4111 146.507 81.387 146.629C81.3629 146.75 81.3753 146.875 81.4226 146.99C81.4699 147.104 81.55 147.201 81.6528 147.27C81.7555 147.339 81.8764 147.376 82 147.376C82.1658 147.376 82.3247 147.31 82.4419 147.192C82.5592 147.075 82.625 146.916 82.625 146.751Z" fill="#F179A2"/>
<path d="M50.393 18.1256L56.25 20.2174V28.7506C56.25 28.9163 56.1842 29.0753 56.0669 29.1925C55.9497 29.3097 55.7908 29.3756 55.625 29.3756H53.125C52.9592 29.3756 52.8003 29.3097 52.6831 29.1925C52.5658 29.0753 52.5 28.9163 52.5 28.7506V24.3756H46.25V28.7506C46.25 28.9163 46.1842 29.0753 46.0669 29.1925C45.9497 29.3097 45.7908 29.3756 45.625 29.3756H43.125C42.9592 29.3756 42.8003 29.3097 42.6831 29.1925C42.5658 29.0753 42.5 28.9163 42.5 28.7506V20.3947C41.0484 19.8771 40 18.5029 40 16.8756C40 16.544 40.1317 16.2261 40.3661 15.9917C40.6005 15.7573 40.9185 15.6256 41.25 15.6256C41.5815 15.6256 41.8995 15.7573 42.1339 15.9917C42.3683 16.2261 42.5 16.544 42.5 16.8756C42.5006 17.2069 42.6325 17.5245 42.8668 17.7588C43.1011 17.9931 43.4187 18.1249 43.75 18.1256H50.393ZM60 13.7506V15.0006C60 15.6636 59.7366 16.2995 59.2678 16.7683C58.7989 17.2372 58.163 17.5006 57.5 17.5006H56.25V18.8904L51.25 17.1049V11.2506C51.25 10.6939 51.9227 10.415 52.3168 10.8088L53.3824 11.8756H55.4773C55.9035 11.8756 56.4051 12.1849 56.5953 12.5666L56.875 13.1256H59.375C59.5408 13.1256 59.6997 13.1914 59.8169 13.3086C59.9342 13.4258 60 13.5848 60 13.7506ZM55.625 13.7506C55.625 13.627 55.5883 13.5061 55.5197 13.4033C55.451 13.3006 55.3534 13.2204 55.2392 13.1731C55.125 13.1258 54.9993 13.1135 54.8781 13.1376C54.7568 13.1617 54.6455 13.2212 54.5581 13.3086C54.4706 13.396 54.4111 13.5074 54.387 13.6286C54.3629 13.7499 54.3753 13.8755 54.4226 13.9897C54.4699 14.1039 54.55 14.2016 54.6528 14.2702C54.7555 14.3389 54.8764 14.3756 55 14.3756C55.1658 14.3756 55.3247 14.3097 55.4419 14.1925C55.5592 14.0753 55.625 13.9163 55.625 13.7506Z" fill="#F0AA18"/>
<path d="M28.393 63.1256L34.25 65.2174V73.7506C34.25 73.9163 34.1842 74.0753 34.0669 74.1925C33.9497 74.3097 33.7908 74.3756 33.625 74.3756H31.125C30.9592 74.3756 30.8003 74.3097 30.6831 74.1925C30.5658 74.0753 30.5 73.9163 30.5 73.7506V69.3756H24.25V73.7506C24.25 73.9163 24.1842 74.0753 24.0669 74.1925C23.9497 74.3097 23.7908 74.3756 23.625 74.3756H21.125C20.9592 74.3756 20.8003 74.3097 20.6831 74.1925C20.5658 74.0753 20.5 73.9163 20.5 73.7506V65.3947C19.0484 64.8771 18 63.5029 18 61.8756C18 61.544 18.1317 61.2261 18.3661 60.9917C18.6005 60.7573 18.9185 60.6256 19.25 60.6256C19.5815 60.6256 19.8995 60.7573 20.1339 60.9917C20.3683 61.2261 20.5 61.544 20.5 61.8756C20.5006 62.2069 20.6325 62.5245 20.8668 62.7588C21.1011 62.9931 21.4187 63.1249 21.75 63.1256H28.393ZM38 58.7506V60.0006C38 60.6636 37.7366 61.2995 37.2678 61.7683C36.7989 62.2372 36.163 62.5006 35.5 62.5006H34.25V63.8904L29.25 62.1049V56.2506C29.25 55.6939 29.9227 55.415 30.3168 55.8088L31.3824 56.8756H33.4773C33.9035 56.8756 34.4051 57.1849 34.5953 57.5666L34.875 58.1256H37.375C37.5408 58.1256 37.6997 58.1914 37.8169 58.3086C37.9342 58.4258 38 58.5848 38 58.7506ZM33.625 58.7506C33.625 58.627 33.5883 58.5061 33.5197 58.4033C33.451 58.3006 33.3534 58.2204 33.2392 58.1731C33.125 58.1258 32.9993 58.1135 32.8781 58.1376C32.7568 58.1617 32.6455 58.2212 32.5581 58.3086C32.4706 58.396 32.4111 58.5074 32.387 58.6286C32.3629 58.7499 32.3753 58.8755 32.4226 58.9897C32.4699 59.1039 32.55 59.2016 32.6528 59.2702C32.7555 59.3389 32.8764 59.3756 33 59.3756C33.1658 59.3756 33.3247 59.3097 33.4419 59.1925C33.5592 59.0753 33.625 58.9163 33.625 58.7506Z" fill="#6ECC66"/>
<path d="M118.393 191.126L124.25 193.217V201.751C124.25 201.916 124.184 202.075 124.067 202.192C123.95 202.31 123.791 202.376 123.625 202.376H121.125C120.959 202.376 120.8 202.31 120.683 202.192C120.566 202.075 120.5 201.916 120.5 201.751V197.376H114.25V201.751C114.25 201.916 114.184 202.075 114.067 202.192C113.95 202.31 113.791 202.376 113.625 202.376H111.125C110.959 202.376 110.8 202.31 110.683 202.192C110.566 202.075 110.5 201.916 110.5 201.751V193.395C109.048 192.877 108 191.503 108 189.876C108 189.544 108.132 189.226 108.366 188.992C108.601 188.757 108.918 188.626 109.25 188.626C109.582 188.626 109.899 188.757 110.134 188.992C110.368 189.226 110.5 189.544 110.5 189.876C110.501 190.207 110.633 190.524 110.867 190.759C111.101 190.993 111.419 191.125 111.75 191.126H118.393ZM128 186.751V188.001C128 188.664 127.737 189.299 127.268 189.768C126.799 190.237 126.163 190.501 125.5 190.501H124.25V191.89L119.25 190.105V184.251C119.25 183.694 119.923 183.415 120.317 183.809L121.382 184.876H123.477C123.904 184.876 124.405 185.185 124.595 185.567L124.875 186.126H127.375C127.541 186.126 127.7 186.191 127.817 186.309C127.934 186.426 128 186.585 128 186.751ZM123.625 186.751C123.625 186.627 123.588 186.506 123.52 186.403C123.451 186.3 123.353 186.22 123.239 186.173C123.125 186.126 122.999 186.113 122.878 186.138C122.757 186.162 122.645 186.221 122.558 186.309C122.471 186.396 122.411 186.507 122.387 186.629C122.363 186.75 122.375 186.875 122.423 186.99C122.47 187.104 122.55 187.201 122.653 187.27C122.756 187.339 122.876 187.376 123 187.376C123.166 187.376 123.325 187.31 123.442 187.192C123.559 187.075 123.625 186.916 123.625 186.751Z" fill="#B999FF"/>
<path d="M56.393 106.126L62.25 108.217V116.751C62.25 116.916 62.1842 117.075 62.0669 117.193C61.9497 117.31 61.7908 117.376 61.625 117.376H59.125C58.9592 117.376 58.8003 117.31 58.6831 117.193C58.5658 117.075 58.5 116.916 58.5 116.751V112.376H52.25V116.751C52.25 116.916 52.1842 117.075 52.0669 117.193C51.9497 117.31 51.7908 117.376 51.625 117.376H49.125C48.9592 117.376 48.8003 117.31 48.6831 117.193C48.5658 117.075 48.5 116.916 48.5 116.751V108.395C47.0484 107.877 46 106.503 46 104.876C46 104.544 46.1317 104.226 46.3661 103.992C46.6005 103.757 46.9185 103.626 47.25 103.626C47.5815 103.626 47.8995 103.757 48.1339 103.992C48.3683 104.226 48.5 104.544 48.5 104.876C48.5006 105.207 48.6325 105.524 48.8668 105.759C49.1011 105.993 49.4187 106.125 49.75 106.126H56.393ZM66 101.751V103.001C66 103.664 65.7366 104.299 65.2678 104.768C64.7989 105.237 64.163 105.501 63.5 105.501H62.25V106.89L57.25 105.105V99.2506C57.25 98.6939 57.9227 98.415 58.3168 98.8088L59.3824 99.8756H61.4773C61.9035 99.8756 62.4051 100.185 62.5953 100.567L62.875 101.126H65.375C65.5408 101.126 65.6997 101.191 65.8169 101.309C65.9342 101.426 66 101.585 66 101.751ZM61.625 101.751C61.625 101.627 61.5883 101.506 61.5197 101.403C61.451 101.301 61.3534 101.22 61.2392 101.173C61.125 101.126 60.9993 101.113 60.8781 101.138C60.7568 101.162 60.6455 101.221 60.5581 101.309C60.4706 101.396 60.4111 101.507 60.387 101.629C60.3629 101.75 60.3753 101.876 60.4226 101.99C60.4699 102.104 60.55 102.202 60.6528 102.27C60.7555 102.339 60.8764 102.376 61 102.376C61.1658 102.376 61.3247 102.31 61.4419 102.193C61.5592 102.075 61.625 101.916 61.625 101.751Z" fill="#B999FF"/>
<path d="M11.3512 170.875C10.5629 170.875 7.17852 170.952 5 174.232V170.875C5 168.807 3.31797 167.125 1.25 167.125C0.559766 167.125 0 167.685 0 168.375C0 169.065 0.559766 169.625 1.25 169.625C1.93906 169.625 2.5 170.186 2.5 170.875V180.875C2.5 182.254 3.62109 183.375 5 183.375H11.875C12.2203 183.375 12.5 183.095 12.5 182.75V182.125C12.5 181.435 11.9402 180.875 11.25 180.875H10L15 177.125V182.75C15 183.095 15.2797 183.375 15.625 183.375H16.875C17.2203 183.375 17.5 183.095 17.5 182.75V174.698C17.098 174.802 16.684 174.875 16.25 174.875C13.8355 174.875 11.8156 173.154 11.3512 170.875V170.875ZM17.5 167.125H15L12.5 164.625V169.875C12.5 171.946 14.1789 173.625 16.25 173.625C18.3211 173.625 20 171.946 20 169.875V164.625L17.5 167.125ZM14.6875 170.25C14.3422 170.25 14.0625 169.97 14.0625 169.625C14.0625 169.28 14.3422 169 14.6875 169C15.0328 169 15.3125 169.28 15.3125 169.625C15.3125 169.97 15.0328 170.25 14.6875 170.25ZM17.8125 170.25C17.4672 170.25 17.1875 169.97 17.1875 169.625C17.1875 169.28 17.4672 169 17.8125 169C18.1578 169 18.4375 169.28 18.4375 169.625C18.4375 169.97 18.1578 170.25 17.8125 170.25Z" fill="#6ECC66"/>
<path d="M81.3512 50.875C80.5629 50.875 77.1785 50.9523 75 54.2324V50.875C75 48.807 73.318 47.125 71.25 47.125C70.5598 47.125 70 47.6848 70 48.375C70 49.0652 70.5598 49.625 71.25 49.625C71.9391 49.625 72.5 50.1859 72.5 50.875V60.875C72.5 62.2539 73.6211 63.375 75 63.375H81.875C82.2203 63.375 82.5 63.0953 82.5 62.75V62.125C82.5 61.4348 81.9402 60.875 81.25 60.875H80L85 57.125V62.75C85 63.0953 85.2797 63.375 85.625 63.375H86.875C87.2203 63.375 87.5 63.0953 87.5 62.75V54.6977C87.098 54.802 86.684 54.875 86.25 54.875C83.8355 54.875 81.8156 53.1543 81.3512 50.875V50.875ZM87.5 47.125H85L82.5 44.625V49.875C82.5 51.9461 84.1789 53.625 86.25 53.625C88.3211 53.625 90 51.9461 90 49.875V44.625L87.5 47.125ZM84.6875 50.25C84.3422 50.25 84.0625 49.9703 84.0625 49.625C84.0625 49.2797 84.3422 49 84.6875 49C85.0328 49 85.3125 49.2797 85.3125 49.625C85.3125 49.9703 85.0328 50.25 84.6875 50.25ZM87.8125 50.25C87.4672 50.25 87.1875 49.9703 87.1875 49.625C87.1875 49.2797 87.4672 49 87.8125 49C88.1578 49 88.4375 49.2797 88.4375 49.625C88.4375 49.9703 88.1578 50.25 87.8125 50.25Z" fill="#F179A2"/>
<path d="M123.351 133.875C122.563 133.875 119.179 133.952 117 137.232V133.875C117 131.807 115.318 130.125 113.25 130.125C112.56 130.125 112 130.685 112 131.375C112 132.065 112.56 132.625 113.25 132.625C113.939 132.625 114.5 133.186 114.5 133.875V143.875C114.5 145.254 115.621 146.375 117 146.375H123.875C124.22 146.375 124.5 146.095 124.5 145.75V145.125C124.5 144.435 123.94 143.875 123.25 143.875H122L127 140.125V145.75C127 146.095 127.28 146.375 127.625 146.375H128.875C129.22 146.375 129.5 146.095 129.5 145.75V137.698C129.098 137.802 128.684 137.875 128.25 137.875C125.836 137.875 123.816 136.154 123.351 133.875V133.875ZM129.5 130.125H127L124.5 127.625V132.875C124.5 134.946 126.179 136.625 128.25 136.625C130.321 136.625 132 134.946 132 132.875V127.625L129.5 130.125ZM126.688 133.25C126.342 133.25 126.062 132.97 126.062 132.625C126.062 132.28 126.342 132 126.688 132C127.033 132 127.312 132.28 127.312 132.625C127.312 132.97 127.033 133.25 126.688 133.25ZM129.812 133.25C129.467 133.25 129.188 132.97 129.188 132.625C129.188 132.28 129.467 132 129.812 132C130.158 132 130.438 132.28 130.438 132.625C130.438 132.97 130.158 133.25 129.812 133.25Z" fill="#73CDFF"/>
<path d="M121.351 80.875C120.563 80.875 117.179 80.9523 115 84.2324V80.875C115 78.807 113.318 77.125 111.25 77.125C110.56 77.125 110 77.6848 110 78.375C110 79.0652 110.56 79.625 111.25 79.625C111.939 79.625 112.5 80.1859 112.5 80.875V90.875C112.5 92.2539 113.621 93.375 115 93.375H121.875C122.22 93.375 122.5 93.0953 122.5 92.75V92.125C122.5 91.4348 121.94 90.875 121.25 90.875H120L125 87.125V92.75C125 93.0953 125.28 93.375 125.625 93.375H126.875C127.22 93.375 127.5 93.0953 127.5 92.75V84.6977C127.098 84.802 126.684 84.875 126.25 84.875C123.836 84.875 121.816 83.1543 121.351 80.875V80.875ZM127.5 77.125H125L122.5 74.625V79.875C122.5 81.9461 124.179 83.625 126.25 83.625C128.321 83.625 130 81.9461 130 79.875V74.625L127.5 77.125ZM124.688 80.25C124.342 80.25 124.062 79.9703 124.062 79.625C124.062 79.2797 124.342 79 124.688 79C125.033 79 125.312 79.2797 125.312 79.625C125.312 79.9703 125.033 80.25 124.688 80.25ZM127.812 80.25C127.467 80.25 127.188 79.9703 127.188 79.625C127.188 79.2797 127.467 79 127.812 79C128.158 79 128.438 79.2797 128.438 79.625C128.438 79.9703 128.158 80.25 127.812 80.25Z" fill="#6ECC66"/>
</svg>
