<svg width="181" height="223" viewBox="0 0 181 223" fill="none" xmlns="http://www.w3.org/2000/svg">
<path d="M50.7281 139.264C49.6401 139.264 48.7441 138.896 48.0401 138.16C47.3361 137.424 46.9841 136.528 46.9841 135.472C46.9841 134.416 47.3361 133.536 48.0401 132.832C48.7441 132.096 49.6401 131.728 50.7281 131.728C51.8161 131.728 52.7121 132.096 53.4161 132.832C54.1521 133.536 54.5201 134.416 54.5201 135.472C54.5201 136.528 54.1521 137.424 53.4161 138.16C52.6801 138.896 51.7841 139.264 50.7281 139.264ZM40.6001 142.48H60.8081V147.808H40.6001V142.48ZM50.7281 158.368C49.6401 158.368 48.7441 158 48.0401 157.264C47.3361 156.528 46.9841 155.632 46.9841 154.576C46.9841 153.52 47.3361 152.64 48.0401 151.936C48.7441 151.2 49.6401 150.832 50.7281 150.832C51.8161 150.832 52.7121 151.2 53.4161 151.936C54.1521 152.64 54.5201 153.52 54.5201 154.576C54.5201 155.632 54.1521 156.528 53.4161 157.264C52.6801 158 51.7841 158.368 50.7281 158.368Z" fill="#4697D2"/>
<path d="M165.768 106.608C165.272 106.608 164.856 106.44 164.52 106.104C164.2 105.768 164.04 105.36 164.04 104.88C164.04 104.4 164.2 103.992 164.52 103.656C164.856 103.32 165.272 103.152 165.768 103.152C166.264 103.152 166.672 103.32 166.992 103.656C167.328 103.992 167.496 104.4 167.496 104.88C167.496 105.36 167.328 105.768 166.992 106.104C166.656 106.44 166.248 106.608 165.768 106.608ZM160.8 108.384H170.688V110.736H160.8V108.384ZM165.768 115.824C165.272 115.824 164.856 115.656 164.52 115.32C164.2 114.984 164.04 114.576 164.04 114.096C164.04 113.616 164.2 113.216 164.52 112.896C164.856 112.56 165.272 112.392 165.768 112.392C166.264 112.392 166.672 112.56 166.992 112.896C167.328 113.216 167.496 113.616 167.496 114.096C167.496 114.576 167.328 114.984 166.992 115.32C166.656 115.656 166.248 115.824 165.768 115.824Z" fill="#4697D2"/>
<path d="M170.728 49.264C169.64 49.264 168.744 48.896 168.04 48.16C167.336 47.424 166.984 46.528 166.984 45.472C166.984 44.416 167.336 43.536 168.04 42.832C168.744 42.096 169.64 41.728 170.728 41.728C171.816 41.728 172.712 42.096 173.416 42.832C174.152 43.536 174.52 44.416 174.52 45.472C174.52 46.528 174.152 47.424 173.416 48.16C172.68 48.896 171.784 49.264 170.728 49.264ZM160.6 52.48H180.808V57.808H160.6V52.48ZM170.728 68.368C169.64 68.368 168.744 68 168.04 67.264C167.336 66.528 166.984 65.632 166.984 64.576C166.984 63.52 167.336 62.64 168.04 61.936C168.744 61.2 169.64 60.832 170.728 60.832C171.816 60.832 172.712 61.2 173.416 61.936C174.152 62.64 174.52 63.52 174.52 64.576C174.52 65.632 174.152 66.528 173.416 67.264C172.68 68 171.784 68.368 170.728 68.368Z" fill="#F0AA18"/>
<path d="M97.7281 174.264C96.6401 174.264 95.7441 173.896 95.0401 173.16C94.3361 172.424 93.9841 171.528 93.9841 170.472C93.9841 169.416 94.3361 168.536 95.0401 167.832C95.7441 167.096 96.6401 166.728 97.7281 166.728C98.8161 166.728 99.7121 167.096 100.416 167.832C101.152 168.536 101.52 169.416 101.52 170.472C101.52 171.528 101.152 172.424 100.416 173.16C99.6801 173.896 98.7841 174.264 97.7281 174.264ZM87.6001 177.48H107.808V182.808H87.6001V177.48ZM97.7281 193.368C96.6401 193.368 95.7441 193 95.0401 192.264C94.3361 191.528 93.9841 190.632 93.9841 189.576C93.9841 188.52 94.3361 187.64 95.0401 186.936C95.7441 186.2 96.6401 185.832 97.7281 185.832C98.8161 185.832 99.7121 186.2 100.416 186.936C101.152 187.64 101.52 188.52 101.52 189.576C101.52 190.632 101.152 191.528 100.416 192.264C99.6801 193 98.7841 193.368 97.7281 193.368Z" fill="#F0AA18"/>
<path d="M152.768 3.60798C152.272 3.60798 151.856 3.43998 151.52 3.10398C151.2 2.76798 151.04 2.35998 151.04 1.87998C151.04 1.39998 151.2 0.991977 151.52 0.655976C151.856 0.319977 152.272 0.151978 152.768 0.151978C153.264 0.151978 153.672 0.319977 153.992 0.655976C154.328 0.991977 154.496 1.39998 154.496 1.87998C154.496 2.35998 154.328 2.76798 153.992 3.10398C153.656 3.43998 153.248 3.60798 152.768 3.60798ZM147.8 5.38398H157.688V7.73598H147.8V5.38398ZM152.768 12.824C152.272 12.824 151.856 12.656 151.52 12.32C151.2 11.984 151.04 11.576 151.04 11.096C151.04 10.616 151.2 10.216 151.52 9.89598C151.856 9.55998 152.272 9.39198 152.768 9.39198C153.264 9.39198 153.672 9.55998 153.992 9.89598C154.328 10.216 154.496 10.616 154.496 11.096C154.496 11.576 154.328 11.984 153.992 12.32C153.656 12.656 153.248 12.824 152.768 12.824Z" fill="#F2F2F2"/>
<path d="M169.152 196.412C168.408 196.412 167.784 196.16 167.28 195.656C166.8 195.152 166.56 194.54 166.56 193.82C166.56 193.1 166.8 192.488 167.28 191.984C167.784 191.48 168.408 191.228 169.152 191.228C169.896 191.228 170.508 191.48 170.988 191.984C171.492 192.488 171.744 193.1 171.744 193.82C171.744 194.54 171.492 195.152 170.988 195.656C170.484 196.16 169.872 196.412 169.152 196.412ZM161.7 199.076H176.532V202.604H161.7V199.076ZM169.152 210.236C168.408 210.236 167.784 209.984 167.28 209.48C166.8 208.976 166.56 208.364 166.56 207.644C166.56 206.924 166.8 206.324 167.28 205.844C167.784 205.34 168.408 205.088 169.152 205.088C169.896 205.088 170.508 205.34 170.988 205.844C171.492 206.324 171.744 206.924 171.744 207.644C171.744 208.364 171.492 208.976 170.988 209.48C170.484 209.984 169.872 210.236 169.152 210.236Z" fill="#F58756"/>
<path d="M47.7281 203.264C46.6401 203.264 45.7441 202.896 45.0401 202.16C44.3361 201.424 43.9841 200.528 43.9841 199.472C43.9841 198.416 44.3361 197.536 45.0401 196.832C45.7441 196.096 46.6401 195.728 47.7281 195.728C48.8161 195.728 49.7121 196.096 50.4161 196.832C51.1521 197.536 51.5201 198.416 51.5201 199.472C51.5201 200.528 51.1521 201.424 50.4161 202.16C49.6801 202.896 48.7841 203.264 47.7281 203.264ZM37.6001 206.48H57.8081V211.808H37.6001V206.48ZM47.7281 222.368C46.6401 222.368 45.7441 222 45.0401 221.264C44.3361 220.528 43.9841 219.632 43.9841 218.576C43.9841 217.52 44.3361 216.64 45.0401 215.936C45.7441 215.2 46.6401 214.832 47.7281 214.832C48.8161 214.832 49.7121 215.2 50.4161 215.936C51.1521 216.64 51.5201 217.52 51.5201 218.576C51.5201 219.632 51.1521 220.528 50.4161 221.264C49.6801 222 48.7841 222.368 47.7281 222.368Z" fill="#B999FF"/>
<path d="M102.152 77.412C101.408 77.412 100.784 77.16 100.28 76.656C99.8002 76.152 99.5602 75.54 99.5602 74.82C99.5602 74.1 99.8002 73.488 100.28 72.984C100.784 72.48 101.408 72.228 102.152 72.228C102.896 72.228 103.508 72.48 103.988 72.984C104.492 73.488 104.744 74.1 104.744 74.82C104.744 75.54 104.492 76.152 103.988 76.656C103.484 77.16 102.872 77.412 102.152 77.412ZM94.7002 80.076H109.532V83.604H94.7002V80.076ZM102.152 91.236C101.408 91.236 100.784 90.984 100.28 90.48C99.8002 89.976 99.5602 89.364 99.5602 88.644C99.5602 87.924 99.8002 87.324 100.28 86.844C100.784 86.34 101.408 86.088 102.152 86.088C102.896 86.088 103.508 86.34 103.988 86.844C104.492 87.324 104.744 87.924 104.744 88.644C104.744 89.364 104.492 89.976 103.988 90.48C103.484 90.984 102.872 91.236 102.152 91.236Z" fill="#B999FF"/>
<path d="M126.728 136.264C125.64 136.264 124.744 135.896 124.04 135.16C123.336 134.424 122.984 133.528 122.984 132.472C122.984 131.416 123.336 130.536 124.04 129.832C124.744 129.096 125.64 128.728 126.728 128.728C127.816 128.728 128.712 129.096 129.416 129.832C130.152 130.536 130.52 131.416 130.52 132.472C130.52 133.528 130.152 134.424 129.416 135.16C128.68 135.896 127.784 136.264 126.728 136.264ZM116.6 139.48H136.808V144.808H116.6V139.48ZM126.728 155.368C125.64 155.368 124.744 155 124.04 154.264C123.336 153.528 122.984 152.632 122.984 151.576C122.984 150.52 123.336 149.64 124.04 148.936C124.744 148.2 125.64 147.832 126.728 147.832C127.816 147.832 128.712 148.2 129.416 148.936C130.152 149.64 130.52 150.52 130.52 151.576C130.52 152.632 130.152 153.528 129.416 154.264C128.68 155 127.784 155.368 126.728 155.368Z" fill="#F179A2"/>
<path d="M8.1522 101.412C7.4082 101.412 6.7842 101.16 6.2802 100.656C5.8002 100.152 5.5602 99.54 5.5602 98.82C5.5602 98.1 5.8002 97.488 6.2802 96.984C6.7842 96.48 7.4082 96.228 8.1522 96.228C8.8962 96.228 9.5082 96.48 9.9882 96.984C10.4922 97.488 10.7442 98.1 10.7442 98.82C10.7442 99.54 10.4922 100.152 9.9882 100.656C9.4842 101.16 8.8722 101.412 8.1522 101.412ZM0.700195 104.076H15.5322V107.604H0.700195V104.076ZM8.1522 115.236C7.4082 115.236 6.7842 114.984 6.2802 114.48C5.8002 113.976 5.5602 113.364 5.5602 112.644C5.5602 111.924 5.8002 111.324 6.2802 110.844C6.7842 110.34 7.4082 110.088 8.1522 110.088C8.8962 110.088 9.5082 110.34 9.9882 110.844C10.4922 111.324 10.7442 111.924 10.7442 112.644C10.7442 113.364 10.4922 113.976 9.9882 114.48C9.4842 114.984 8.8722 115.236 8.1522 115.236Z" fill="#F179A2"/>
<path d="M53.7281 25.264C52.6401 25.264 51.7441 24.896 51.0401 24.16C50.3361 23.424 49.9841 22.528 49.9841 21.472C49.9841 20.416 50.3361 19.536 51.0401 18.832C51.7441 18.096 52.6401 17.728 53.7281 17.728C54.8161 17.728 55.7121 18.096 56.4161 18.832C57.1521 19.536 57.5201 20.416 57.5201 21.472C57.5201 22.528 57.1521 23.424 56.4161 24.16C55.6801 24.896 54.7841 25.264 53.7281 25.264ZM43.6001 28.48H63.8081V33.808H43.6001V28.48ZM53.7281 44.368C52.6401 44.368 51.7441 44 51.0401 43.264C50.3361 42.528 49.9841 41.632 49.9841 40.576C49.9841 39.52 50.3361 38.64 51.0401 37.936C51.7441 37.2 52.6401 36.832 53.7281 36.832C54.8161 36.832 55.7121 37.2 56.4161 37.936C57.1521 38.64 57.5201 39.52 57.5201 40.576C57.5201 41.632 57.1521 42.528 56.4161 43.264C55.6801 44 54.7841 44.368 53.7281 44.368Z" fill="#F58756"/>
</svg>
