<svg width="166" height="227" viewBox="0 0 166 227" fill="none" xmlns="http://www.w3.org/2000/svg">
<path d="M105 149L95 161H104L103 169L113 157H104L105 149Z" stroke="#73CDFF" stroke-width="2" stroke-linecap="round" stroke-linejoin="round"/>
<path d="M45 1L35 13H44L43 21L53 9H44L45 1Z" stroke="#B999FF" stroke-width="2" stroke-linecap="round" stroke-linejoin="round"/>
<path d="M157 11L147 23H156L155 31L165 19H156L157 11Z" stroke="#73CDFF" stroke-width="2" stroke-linecap="round" stroke-linejoin="round"/>
<path d="M73 63L63 75H72L71 83L81 71H72L73 63Z" stroke="#6ECC66" stroke-width="2" stroke-linecap="round" stroke-linejoin="round"/>
<path d="M142.73 213.73C143.021 213.44 143.379 213.226 143.772 213.107C144.165 212.988 144.582 212.968 144.984 213.048C145.387 213.129 145.764 213.307 146.082 213.568C146.399 213.828 146.648 214.163 146.805 214.543C146.962 214.922 147.024 215.335 146.984 215.743C146.944 216.152 146.804 216.545 146.576 216.887C146.348 217.229 146.039 217.509 145.677 217.703C145.315 217.897 144.911 217.999 144.5 218H127M134.59 210.59C134.822 210.356 135.109 210.184 135.424 210.087C135.739 209.991 136.073 209.974 136.396 210.038C136.72 210.102 137.022 210.245 137.277 210.454C137.532 210.663 137.731 210.931 137.857 211.236C137.983 211.54 138.031 211.871 137.998 212.199C137.966 212.527 137.852 212.842 137.669 213.115C137.485 213.389 137.236 213.613 136.945 213.767C136.654 213.921 136.33 214.001 136 214H127L134.59 210.59ZM137.59 225.41C137.822 225.644 138.109 225.816 138.424 225.913C138.739 226.009 139.073 226.026 139.396 225.962C139.72 225.898 140.022 225.755 140.277 225.546C140.532 225.337 140.731 225.069 140.857 224.764C140.983 224.46 141.031 224.129 140.998 223.801C140.966 223.473 140.852 223.158 140.669 222.885C140.485 222.611 140.236 222.387 139.945 222.233C139.654 222.079 139.33 221.999 139 222H127L137.59 225.41Z" stroke="#F9FBFF" stroke-width="2" stroke-linecap="round" stroke-linejoin="round"/>
<path d="M50.73 131.73C51.0208 131.44 51.3787 131.226 51.7719 131.107C52.1652 130.988 52.5816 130.968 52.9845 131.048C53.3874 131.129 53.7642 131.307 54.0817 131.568C54.3993 131.828 54.6477 132.163 54.805 132.543C54.9623 132.922 55.0236 133.335 54.9836 133.743C54.9436 134.152 54.8035 134.545 54.5756 134.887C54.3477 135.229 54.0391 135.509 53.6771 135.703C53.3151 135.897 52.9108 135.999 52.5 136H35M42.59 128.59C42.8223 128.356 43.1088 128.184 43.4239 128.087C43.739 127.991 44.073 127.974 44.3963 128.038C44.7195 128.102 45.022 128.245 45.2768 128.454C45.5315 128.663 45.7307 128.931 45.8566 129.236C45.9825 129.54 46.0313 129.871 45.9985 130.199C45.9657 130.527 45.8524 130.842 45.6687 131.115C45.4849 131.389 45.2365 131.613 44.9454 131.767C44.6542 131.921 44.3295 132.001 44 132H35L42.59 128.59ZM45.59 143.41C45.8223 143.644 46.1088 143.816 46.4239 143.913C46.739 144.009 47.073 144.026 47.3963 143.962C47.7195 143.898 48.022 143.755 48.2768 143.546C48.5315 143.337 48.7307 143.069 48.8566 142.764C48.9825 142.46 49.0313 142.129 48.9985 141.801C48.9657 141.473 48.8524 141.158 48.6687 140.885C48.4849 140.611 48.2365 140.387 47.9454 140.233C47.6542 140.079 47.3295 139.999 47 140H35L45.59 143.41Z" stroke="#F179A2" stroke-width="2" stroke-linecap="round" stroke-linejoin="round"/>
<path d="M110.73 24.73C111.021 24.4399 111.379 24.2259 111.772 24.107C112.165 23.9881 112.582 23.9679 112.984 24.0483C113.387 24.1286 113.764 24.307 114.082 24.5677C114.399 24.8283 114.648 25.1632 114.805 25.5427C114.962 25.9222 115.024 26.3346 114.984 26.7434C114.944 27.1523 114.804 27.545 114.576 27.8868C114.348 28.2286 114.039 28.509 113.677 28.7031C113.315 28.8973 112.911 28.9992 112.5 29H95M102.59 21.59C102.822 21.3563 103.109 21.1836 103.424 21.0873C103.739 20.991 104.073 20.9741 104.396 21.038C104.72 21.1019 105.022 21.2447 105.277 21.4536C105.532 21.6626 105.731 21.9313 105.857 22.2358C105.983 22.5403 106.031 22.8712 105.998 23.199C105.966 23.5269 105.852 23.8416 105.669 24.1151C105.485 24.3887 105.236 24.6126 104.945 24.7669C104.654 24.9213 104.33 25.0014 104 25H95L102.59 21.59ZM105.59 36.41C105.822 36.6437 106.109 36.8163 106.424 36.9126C106.739 37.0089 107.073 37.0259 107.396 36.962C107.72 36.8981 108.022 36.7553 108.277 36.5463C108.532 36.3374 108.731 36.0687 108.857 35.7642C108.983 35.4597 109.031 35.1288 108.998 34.8009C108.966 34.473 108.852 34.1584 108.669 33.8848C108.485 33.6113 108.236 33.3874 107.945 33.233C107.654 33.0786 107.33 32.9986 107 33H95L105.59 36.41Z" stroke="#F58756" stroke-width="2" stroke-linecap="round" stroke-linejoin="round"/>
<path d="M78.73 211.73C79.0208 211.44 79.3787 211.226 79.7719 211.107C80.1652 210.988 80.5816 210.968 80.9845 211.048C81.3874 211.129 81.7642 211.307 82.0817 211.568C82.3993 211.828 82.6477 212.163 82.805 212.543C82.9623 212.922 83.0236 213.335 82.9836 213.743C82.9436 214.152 82.8035 214.545 82.5756 214.887C82.3477 215.229 82.0391 215.509 81.6771 215.703C81.3151 215.897 80.9108 215.999 80.5 216H63M70.59 208.59C70.8223 208.356 71.1088 208.184 71.4239 208.087C71.739 207.991 72.073 207.974 72.3963 208.038C72.7195 208.102 73.022 208.245 73.2768 208.454C73.5315 208.663 73.7307 208.931 73.8566 209.236C73.9825 209.54 74.0313 209.871 73.9985 210.199C73.9657 210.527 73.8524 210.842 73.6687 211.115C73.4849 211.389 73.2365 211.613 72.9454 211.767C72.6542 211.921 72.3295 212.001 72 212H63L70.59 208.59ZM73.59 223.41C73.8223 223.644 74.1088 223.816 74.4239 223.913C74.739 224.009 75.073 224.026 75.3963 223.962C75.7195 223.898 76.022 223.755 76.2768 223.546C76.5315 223.337 76.7307 223.069 76.8566 222.764C76.9825 222.46 77.0313 222.129 76.9985 221.801C76.9657 221.473 76.8524 221.158 76.6687 220.885C76.4849 220.611 76.2365 220.387 75.9454 220.233C75.6542 220.079 75.3295 219.999 75 220H63L73.59 223.41Z" stroke="#F58756" stroke-width="2" stroke-linecap="round" stroke-linejoin="round"/>
<path d="M12 204C14.7614 204 17 201.761 17 199C17 196.239 14.7614 194 12 194C9.23858 194 7 196.239 7 199C7 201.761 9.23858 204 12 204Z" stroke="#F0AA18" stroke-width="2" stroke-linecap="round" stroke-linejoin="round"/>
<path d="M12 188V190" stroke="#F0AA18" stroke-width="2" stroke-linecap="round" stroke-linejoin="round"/>
<path d="M12 208V210" stroke="#F0AA18" stroke-width="2" stroke-linecap="round" stroke-linejoin="round"/>
<path d="M4.22021 191.22L5.64021 192.64" stroke="#F0AA18" stroke-width="2" stroke-linecap="round" stroke-linejoin="round"/>
<path d="M18.3599 205.36L19.7799 206.78" stroke="#F0AA18" stroke-width="2" stroke-linecap="round" stroke-linejoin="round"/>
<path d="M1 199H3" stroke="#F0AA18" stroke-width="2" stroke-linecap="round" stroke-linejoin="round"/>
<path d="M21 199H23" stroke="#F0AA18" stroke-width="2" stroke-linecap="round" stroke-linejoin="round"/>
<path d="M4.22021 206.78L5.64021 205.36" stroke="#F0AA18" stroke-width="2" stroke-linecap="round" stroke-linejoin="round"/>
<path d="M18.3599 192.64L19.7799 191.22" stroke="#F0AA18" stroke-width="2" stroke-linecap="round" stroke-linejoin="round"/>
<path d="M136 99C138.761 99 141 96.7614 141 94C141 91.2386 138.761 89 136 89C133.239 89 131 91.2386 131 94C131 96.7614 133.239 99 136 99Z" stroke="#F0AA18" stroke-width="2" stroke-linecap="round" stroke-linejoin="round"/>
<path d="M136 83V85" stroke="#F0AA18" stroke-width="2" stroke-linecap="round" stroke-linejoin="round"/>
<path d="M136 103V105" stroke="#F0AA18" stroke-width="2" stroke-linecap="round" stroke-linejoin="round"/>
<path d="M128.22 86.22L129.64 87.64" stroke="#F0AA18" stroke-width="2" stroke-linecap="round" stroke-linejoin="round"/>
<path d="M142.36 100.36L143.78 101.78" stroke="#F0AA18" stroke-width="2" stroke-linecap="round" stroke-linejoin="round"/>
<path d="M125 94H127" stroke="#F0AA18" stroke-width="2" stroke-linecap="round" stroke-linejoin="round"/>
<path d="M145 94H147" stroke="#F0AA18" stroke-width="2" stroke-linecap="round" stroke-linejoin="round"/>
<path d="M128.22 101.78L129.64 100.36" stroke="#F0AA18" stroke-width="2" stroke-linecap="round" stroke-linejoin="round"/>
<path d="M142.36 87.64L143.78 86.22" stroke="#F0AA18" stroke-width="2" stroke-linecap="round" stroke-linejoin="round"/>
<path d="M22 83C24.7614 83 27 80.7614 27 78C27 75.2386 24.7614 73 22 73C19.2386 73 17 75.2386 17 78C17 80.7614 19.2386 83 22 83Z" stroke="#F0AA18" stroke-width="2" stroke-linecap="round" stroke-linejoin="round"/>
<path d="M22 67V69" stroke="#F0AA18" stroke-width="2" stroke-linecap="round" stroke-linejoin="round"/>
<path d="M22 87V89" stroke="#F0AA18" stroke-width="2" stroke-linecap="round" stroke-linejoin="round"/>
<path d="M14.2202 70.22L15.6402 71.64" stroke="#F0AA18" stroke-width="2" stroke-linecap="round" stroke-linejoin="round"/>
<path d="M28.3599 84.36L29.7799 85.78" stroke="#F0AA18" stroke-width="2" stroke-linecap="round" stroke-linejoin="round"/>
<path d="M11 78H13" stroke="#F0AA18" stroke-width="2" stroke-linecap="round" stroke-linejoin="round"/>
<path d="M31 78H33" stroke="#F0AA18" stroke-width="2" stroke-linecap="round" stroke-linejoin="round"/>
<path d="M14.2202 85.78L15.6402 84.36" stroke="#F0AA18" stroke-width="2" stroke-linecap="round" stroke-linejoin="round"/>
<path d="M28.3599 71.64L29.7799 70.22" stroke="#F0AA18" stroke-width="2" stroke-linecap="round" stroke-linejoin="round"/>
</svg>
