<svg width="184" height="223" viewBox="0 0 184 223" fill="none" xmlns="http://www.w3.org/2000/svg">
<path d="M46.976 146.328L39.248 133.656H46.544L51.344 142.344H51.536L56.3361 133.656H63.5841L55.76 146.328L63.5841 159H56.3361L51.536 150.264H51.344L46.592 159H39.296L46.976 146.328Z" fill="#6ECC66"/>
<path d="M164.656 109.664L160.696 103.328H163.888L166.576 107.936H166.672L169.336 103.328H172.528L168.52 109.664L172.528 116H169.336L166.672 111.392H166.576L163.912 116H160.696L164.656 109.664Z" fill="#6ECC66"/>
<path d="M166.976 56.328L159.248 43.656H166.544L171.344 52.344H171.536L176.336 43.656H183.584L175.76 56.328L183.584 69H176.336L171.536 60.264H171.344L166.592 69H159.296L166.976 56.328Z" fill="#F0AA18"/>
<path d="M93.976 181.328L86.248 168.656H93.544L98.344 177.344H98.536L103.336 168.656H110.584L102.76 181.328L110.584 194H103.336L98.536 185.264H98.344L93.592 194H86.296L93.976 181.328Z" fill="#F0AA18"/>
<path d="M151.656 6.664L147.696 0.328003H150.888L153.576 4.936H153.672L156.336 0.328003H159.528L155.52 6.664L159.528 13H156.336L153.672 8.392H153.576L150.912 13H147.696L151.656 6.664Z" fill="#F2F2F2"/>
<path d="M166.984 201.496L161.044 191.992H165.832L169.864 198.904H170.008L174.004 191.992H178.792L172.78 201.496L178.792 211H174.004L170.008 204.088H169.864L165.868 211H161.044L166.984 201.496Z" fill="#F58756"/>
<path d="M43.976 210.328L36.248 197.656H43.544L48.344 206.344H48.536L53.3361 197.656H60.5841L52.76 210.328L60.5841 223H53.3361L48.536 214.264H48.344L43.592 223H36.296L43.976 210.328Z" fill="#B999FF"/>
<path d="M99.9839 82.496L94.0439 72.992H98.8319L102.864 79.904H103.008L107.004 72.992H111.792L105.78 82.496L111.792 92H107.004L103.008 85.088H102.864L98.8679 92H94.0439L99.9839 82.496Z" fill="#B999FF"/>
<path d="M122.976 143.328L115.248 130.656H122.544L127.344 139.344H127.536L132.336 130.656H139.584L131.76 143.328L139.584 156H132.336L127.536 147.264H127.344L122.592 156H115.296L122.976 143.328Z" fill="#F179A2"/>
<path d="M5.98395 106.496L0.0439453 96.992H4.83194L8.86395 103.904H9.00795L13.0039 96.992H17.7919L11.7799 106.496L17.7919 116H13.0039L9.00795 109.088H8.86395L4.86795 116H0.0439453L5.98395 106.496Z" fill="#F179A2"/>
<path d="M49.976 32.328L42.248 19.656H49.544L54.344 28.344H54.536L59.3361 19.656H66.5841L58.76 32.328L66.5841 45H59.3361L54.536 36.264H54.344L49.592 45H42.296L49.976 32.328Z" fill="#F58756"/>
</svg>
