<svg width="165" height="190" viewBox="0 0 165 190" fill="none" xmlns="http://www.w3.org/2000/svg">
<path d="M86.2651 135.256L80.9398 125L73.5663 135.256L66.3976 130.86L58 141.116L60.253 154.302L78.2771 161L92 154.302V141.116L86.2651 135.256Z" fill="#F0AA18"/>
<path d="M158.265 157.256L152.94 147L145.566 157.256L138.398 152.86L130 163.116L132.253 176.302L150.277 183L164 176.302V163.116L158.265 157.256Z" fill="#73CDFF"/>
<path d="M118.265 99.2558L112.94 89L105.566 99.2558L98.3976 94.8605L90 105.116L92.253 118.302L110.277 125L124 118.302V105.116L118.265 99.2558Z" fill="#B999FF"/>
<path d="M38.2651 103.256L32.9398 93L25.5663 103.256L18.3976 98.8605L10 109.116L12.253 122.302L30.2771 129L44 122.302V109.116L38.2651 103.256Z" fill="#F58756"/>
<path d="M38.2651 164.256L32.9398 154L25.5663 164.256L18.3976 159.86L10 170.116L12.253 183.302L30.2771 190L44 183.302V170.116L38.2651 164.256Z" fill="#6ECC66"/>
<path d="M89.2651 36.2558L83.9398 26L76.5663 36.2558L69.3976 31.8605L61 42.1163L63.253 55.3023L81.2771 62L95 55.3023V42.1163L89.2651 36.2558Z" fill="#73CDFF"/>
<path d="M28.2651 36.2558L22.9398 26L15.5663 36.2558L8.39759 31.8605L0 42.1163L2.25301 55.3023L20.2771 62L34 55.3023V42.1163L28.2651 36.2558Z" fill="#6ECC66"/>
<path d="M159.265 10.2558L153.94 0L146.566 10.2558L139.398 5.86047L131 16.1163L133.253 29.3023L151.277 36L165 29.3023V16.1163L159.265 10.2558Z" fill="#F0AA18"/>
<path d="M157.265 66.2558L151.94 56L144.566 66.2558L137.398 61.8605L129 72.1163L131.253 85.3023L149.277 92L163 85.3023V72.1163L157.265 66.2558Z" fill="#F179A2"/>
</svg>
