<svg width="153" height="236" viewBox="0 0 153 236" fill="none" xmlns="http://www.w3.org/2000/svg">
<path d="M5.50762 189.481C5.02612 190.508 4.75 191.882 4.75 193.25L4.75 202.177C4.54516 202.332 4.37569 202.508 4.25 202.7L4.25 196.25C3.30459 200.839 -2.997e-07 201.144 -1.31138e-07 205L-1.31134e-07 205L4 205L4 205.5L-1.09278e-07 205.5C-7.30663e-08 206.328 0.895437 207 2 207L4 207C4 207.725 4.3135 208 4.75 208L6 208C6.43697 208 6.75 207.724 6.75 207L7.25 207C7.25 207.725 7.5635 208 8 208L9.25 208C9.68697 208 10 207.724 10 207L12 207C13.1046 207 14 206.328 14 205.5L10 205.5L10 205L14 205L14 205C14 201.144 10.6954 200.839 9.75 196.25L9.75 202.7C9.62431 202.508 9.45484 202.332 9.25 202.177L9.25 193.25C9.25 191.882 8.97387 190.508 8.49237 189.481C8.05766 188.554 7.49975 188 7 188C6.50025 188 5.94234 188.554 5.50762 189.481ZM8.25 192.75C8.25 192.816 8.22366 192.88 8.17678 192.927C8.12989 192.974 8.0663 193 8 193L6 193C5.9337 193 5.87011 192.974 5.82322 192.927C5.77634 192.88 5.75 192.816 5.75 192.75C5.75 191.753 8.25 191.752 8.25 192.75Z" fill="#B999FF"/>
<path d="M81.5076 69.4811C81.0261 70.5083 80.75 71.882 80.75 73.25L80.75 82.1773C80.5452 82.332 80.3757 82.5081 80.25 82.6998L80.25 76.25C79.3046 80.8388 76 81.1437 76 84.9999L76 85L80 85L80 85.5L76 85.5C76 86.3284 76.8954 87 78 87L80 87C80 87.7249 80.3135 88 80.75 88L82 88C82.437 88 82.75 87.7244 82.75 87L83.25 87C83.25 87.7249 83.5635 88 84 88L85.25 88C85.687 88 86 87.7244 86 87L88 87C89.1046 87 90 86.3284 90 85.5L86 85.5L86 85L90 85L90 84.9999C90 81.1437 86.6954 80.8388 85.75 76.25L85.75 82.6998C85.6243 82.5081 85.4548 82.3321 85.25 82.1773L85.25 73.25C85.25 71.882 84.9739 70.5083 84.4924 69.4811C84.0577 68.5537 83.4997 68 83 68C82.5002 68 81.9423 68.5537 81.5076 69.4811ZM84.25 72.75C84.25 72.8163 84.2237 72.8799 84.1768 72.9268C84.1299 72.9737 84.0663 73 84 73L82 73C81.9337 73 81.8701 72.9737 81.8232 72.9268C81.7763 72.8799 81.75 72.8163 81.75 72.75C81.75 71.7528 84.25 71.7518 84.25 72.75Z" fill="#B999FF"/>
<path d="M144.508 43.4811C144.026 44.5083 143.75 45.882 143.75 47.25L143.75 56.1773C143.545 56.332 143.376 56.5081 143.25 56.6998L143.25 50.25C142.305 54.8388 139 55.1437 139 58.9999L139 59L143 59L143 59.5L139 59.5C139 60.3284 139.895 61 141 61L143 61C143 61.7249 143.313 62 143.75 62L145 62C145.437 62 145.75 61.7244 145.75 61L146.25 61C146.25 61.7249 146.563 62 147 62L148.25 62C148.687 62 149 61.7244 149 61L151 61C152.105 61 153 60.3284 153 59.5L149 59.5L149 59L153 59L153 58.9999C153 55.1437 149.695 54.8388 148.75 50.25L148.75 56.6998C148.624 56.5081 148.455 56.3321 148.25 56.1773L148.25 47.25C148.25 45.882 147.974 44.5083 147.492 43.4811C147.058 42.5537 146.5 42 146 42C145.5 42 144.942 42.5537 144.508 43.4811ZM147.25 46.75C147.25 46.8163 147.224 46.8799 147.177 46.9268C147.13 46.9737 147.066 47 147 47L145 47C144.934 47 144.87 46.9737 144.823 46.9268C144.776 46.8799 144.75 46.8163 144.75 46.75C144.75 45.7528 147.25 45.7518 147.25 46.75Z" fill="#6ECC66"/>
<path d="M55.5076 160.481C55.0261 161.508 54.75 162.882 54.75 164.25L54.75 173.177C54.5452 173.332 54.3757 173.508 54.25 173.7L54.25 167.25C53.3046 171.839 50 172.144 50 176L50 176L54 176L54 176.5L50 176.5C50 177.328 50.8954 178 52 178L54 178C54 178.725 54.3135 179 54.75 179L56 179C56.437 179 56.75 178.724 56.75 178L57.25 178C57.25 178.725 57.5635 179 58 179L59.25 179C59.687 179 60 178.724 60 178L62 178C63.1046 178 64 177.328 64 176.5L60 176.5L60 176L64 176L64 176C64 172.144 60.6954 171.839 59.75 167.25L59.75 173.7C59.6243 173.508 59.4548 173.332 59.25 173.177L59.25 164.25C59.25 162.882 58.9739 161.508 58.4924 160.481C58.0577 159.554 57.4997 159 57 159C56.5002 159 55.9423 159.554 55.5076 160.481ZM58.25 163.75C58.25 163.816 58.2237 163.88 58.1768 163.927C58.1299 163.974 58.0663 164 58 164L56 164C55.9337 164 55.8701 163.974 55.8232 163.927C55.7763 163.88 55.75 163.816 55.75 163.75C55.75 162.753 58.25 162.752 58.25 163.75Z" fill="#F58756"/>
<path d="M39.5076 113.481C39.0261 114.508 38.75 115.882 38.75 117.25L38.75 126.177C38.5452 126.332 38.3757 126.508 38.25 126.7L38.25 120.25C37.3046 124.839 34 125.144 34 129L34 129L38 129L38 129.5L34 129.5C34 130.328 34.8954 131 36 131L38 131C38 131.725 38.3135 132 38.75 132L40 132C40.437 132 40.75 131.724 40.75 131L41.25 131C41.25 131.725 41.5635 132 42 132L43.25 132C43.687 132 44 131.724 44 131L46 131C47.1046 131 48 130.328 48 129.5L44 129.5L44 129L48 129L48 129C48 125.144 44.6954 124.839 43.75 120.25L43.75 126.7C43.6243 126.508 43.4548 126.332 43.25 126.177L43.25 117.25C43.25 115.882 42.9739 114.508 42.4924 113.481C42.0577 112.554 41.4997 112 41 112C40.5002 112 39.9423 112.554 39.5076 113.481ZM42.25 116.75C42.25 116.816 42.2237 116.88 42.1768 116.927C42.1299 116.974 42.0663 117 42 117L40 117C39.9337 117 39.8701 116.974 39.8232 116.927C39.7763 116.88 39.75 116.816 39.75 116.75C39.75 115.753 42.25 115.752 42.25 116.75Z" fill="#F0AA18"/>
<path d="M110.508 174.481C110.026 175.508 109.75 176.882 109.75 178.25L109.75 187.177C109.545 187.332 109.376 187.508 109.25 187.7L109.25 181.25C108.305 185.839 105 186.144 105 190L105 190L109 190L109 190.5L105 190.5C105 191.328 105.895 192 107 192L109 192C109 192.725 109.313 193 109.75 193L111 193C111.437 193 111.75 192.724 111.75 192L112.25 192C112.25 192.725 112.563 193 113 193L114.25 193C114.687 193 115 192.724 115 192L117 192C118.105 192 119 191.328 119 190.5L115 190.5L115 190L119 190L119 190C119 186.144 115.695 185.839 114.75 181.25L114.75 187.7C114.624 187.508 114.455 187.332 114.25 187.177L114.25 178.25C114.25 176.882 113.974 175.508 113.492 174.481C113.058 173.554 112.5 173 112 173C111.5 173 110.942 173.554 110.508 174.481ZM113.25 177.75C113.25 177.816 113.224 177.88 113.177 177.927C113.13 177.974 113.066 178 113 178L111 178C110.934 178 110.87 177.974 110.823 177.927C110.776 177.88 110.75 177.816 110.75 177.75C110.75 176.753 113.25 176.752 113.25 177.75Z" fill="#6ECC66"/>
<path d="M74.5076 211.481C74.0261 212.508 73.75 213.882 73.75 215.25L73.75 224.177C73.5452 224.332 73.3757 224.508 73.25 224.7L73.25 218.25C72.3046 222.839 69 223.144 69 227L69 227L73 227L73 227.5L69 227.5C69 228.328 69.8954 229 71 229L73 229C73 229.725 73.3135 230 73.75 230L75 230C75.437 230 75.75 229.724 75.75 229L76.25 229C76.25 229.725 76.5635 230 77 230L78.25 230C78.687 230 79 229.724 79 229L81 229C82.1046 229 83 228.328 83 227.5L79 227.5L79 227L83 227L83 227C83 223.144 79.6954 222.839 78.75 218.25L78.75 224.7C78.6243 224.508 78.4548 224.332 78.25 224.177L78.25 215.25C78.25 213.882 77.9739 212.508 77.4924 211.481C77.0577 210.554 76.4997 210 76 210C75.5002 210 74.9423 210.554 74.5076 211.481ZM77.25 214.75C77.25 214.816 77.2237 214.88 77.1768 214.927C77.1299 214.974 77.0663 215 77 215L75 215C74.9337 215 74.8701 214.974 74.8232 214.927C74.7763 214.88 74.75 214.816 74.75 214.75C74.75 213.753 77.25 213.752 77.25 214.75Z" fill="#F0AA18"/>
<path d="M110.508 1.48112C110.026 2.50828 109.75 3.88197 109.75 5.25L109.75 14.1773C109.545 14.332 109.376 14.5081 109.25 14.6998L109.25 8.25C108.305 12.8388 105 13.1437 105 16.9999L105 17L109 17L109 17.5L105 17.5C105 18.3284 105.895 19 107 19L109 19C109 19.7249 109.313 20 109.75 20L111 20C111.437 20 111.75 19.7244 111.75 19L112.25 19C112.25 19.7249 112.563 20 113 20L114.25 20C114.687 20 115 19.7244 115 19L117 19C118.105 19 119 18.3284 119 17.5L115 17.5L115 17L119 17L119 16.9999C119 13.1437 115.695 12.8388 114.75 8.25L114.75 14.6998C114.624 14.5081 114.455 14.3321 114.25 14.1773L114.25 5.25C114.25 3.88197 113.974 2.50828 113.492 1.48112C113.058 0.553688 112.5 -3.27824e-07 112 -3.0598e-07C111.5 -2.84135e-07 110.942 0.553688 110.508 1.48112ZM113.25 4.75C113.25 4.8163 113.224 4.87989 113.177 4.92678C113.13 4.97366 113.066 5 113 5L111 5C110.934 5 110.87 4.97366 110.823 4.92678C110.776 4.87989 110.75 4.8163 110.75 4.75C110.75 3.75284 113.25 3.75181 113.25 4.75Z" fill="#6ECC66"/>
<path d="M120.508 217.481C120.026 218.508 119.75 219.882 119.75 221.25L119.75 230.177C119.545 230.332 119.376 230.508 119.25 230.7L119.25 224.25C118.305 228.839 115 229.144 115 233L115 233L119 233L119 233.5L115 233.5C115 234.328 115.895 235 117 235L119 235C119 235.725 119.313 236 119.75 236L121 236C121.437 236 121.75 235.724 121.75 235L122.25 235C122.25 235.725 122.563 236 123 236L124.25 236C124.687 236 125 235.724 125 235L127 235C128.105 235 129 234.328 129 233.5L125 233.5L125 233L129 233L129 233C129 229.144 125.695 228.839 124.75 224.25L124.75 230.7C124.624 230.508 124.455 230.332 124.25 230.177L124.25 221.25C124.25 219.882 123.974 218.508 123.492 217.481C123.058 216.554 122.5 216 122 216C121.5 216 120.942 216.554 120.508 217.481ZM123.25 220.75C123.25 220.816 123.224 220.88 123.177 220.927C123.13 220.974 123.066 221 123 221L121 221C120.934 221 120.87 220.974 120.823 220.927C120.776 220.88 120.75 220.816 120.75 220.75C120.75 219.753 123.25 219.752 123.25 220.75Z" fill="#F179A2"/>
<path d="M115.508 113.481C115.026 114.508 114.75 115.882 114.75 117.25L114.75 126.177C114.545 126.332 114.376 126.508 114.25 126.7L114.25 120.25C113.305 124.839 110 125.144 110 129L110 129L114 129L114 129.5L110 129.5C110 130.328 110.895 131 112 131L114 131C114 131.725 114.313 132 114.75 132L116 132C116.437 132 116.75 131.724 116.75 131L117.25 131C117.25 131.725 117.563 132 118 132L119.25 132C119.687 132 120 131.724 120 131L122 131C123.105 131 124 130.328 124 129.5L120 129.5L120 129L124 129L124 129C124 125.144 120.695 124.839 119.75 120.25L119.75 126.7C119.624 126.508 119.455 126.332 119.25 126.177L119.25 117.25C119.25 115.882 118.974 114.508 118.492 113.481C118.058 112.554 117.5 112 117 112C116.5 112 115.942 112.554 115.508 113.481ZM118.25 116.75C118.25 116.816 118.224 116.88 118.177 116.927C118.13 116.974 118.066 117 118 117L116 117C115.934 117 115.87 116.974 115.823 116.927C115.776 116.88 115.75 116.816 115.75 116.75C115.75 115.753 118.25 115.752 118.25 116.75Z" fill="#73CDFF"/>
<path d="M34.5076 18.4811C34.0261 19.5083 33.75 20.882 33.75 22.25L33.75 31.1773C33.5452 31.332 33.3757 31.5081 33.25 31.6998L33.25 25.25C32.3046 29.8388 29 30.1437 29 33.9999L29 34L33 34L33 34.5L29 34.5C29 35.3284 29.8954 36 31 36L33 36C33 36.7249 33.3135 37 33.75 37L35 37C35.437 37 35.75 36.7244 35.75 36L36.25 36C36.25 36.7249 36.5635 37 37 37L38.25 37C38.687 37 39 36.7244 39 36L41 36C42.1046 36 43 35.3284 43 34.5L39 34.5L39 34L43 34L43 33.9999C43 30.1437 39.6954 29.8388 38.75 25.25L38.75 31.6998C38.6243 31.5081 38.4548 31.3321 38.25 31.1773L38.25 22.25C38.25 20.882 37.9739 19.5083 37.4924 18.4811C37.0577 17.5537 36.4997 17 36 17C35.5002 17 34.9423 17.5537 34.5076 18.4811ZM37.25 21.75C37.25 21.8163 37.2237 21.8799 37.1768 21.9268C37.1299 21.9737 37.0663 22 37 22L35 22C34.9337 22 34.8701 21.9737 34.8232 21.9268C34.7763 21.8799 34.75 21.8163 34.75 21.75C34.75 20.7528 37.25 20.7518 37.25 21.75Z" fill="#F179A2"/>
</svg>
