<svg width="178" height="207" viewBox="0 0 178 207" fill="none" xmlns="http://www.w3.org/2000/svg">
<path d="M40.5679 137.384H57.8959V142.664H40.5679V137.384Z" fill="#6ECC66"/>
<path d="M159.784 103.336H168.496V105.664H159.784V103.336Z" fill="#6ECC66"/>
<path d="M160.568 47.384H177.896V52.664H160.568V47.384Z" fill="#F0AA18"/>
<path d="M87.5679 172.384H104.896V177.664H87.5679V172.384Z" fill="#F0AA18"/>
<path d="M146.784 0.335999H155.496V2.664H146.784V0.335999Z" fill="#F2F2F2"/>
<path d="M161.176 194.004H174.244V197.496H161.176V194.004Z" fill="#F58756"/>
<path d="M37.5679 201.384H54.8959V206.664H37.5679V201.384Z" fill="#73CDFF"/>
<path d="M94.1758 75.004H107.244V78.496H94.1758V75.004Z" fill="#73CDFF"/>
<path d="M116.568 134.384H133.896V139.664H116.568V134.384Z" fill="#F179A2"/>
<path d="M0.175781 99.004H13.2438V102.496H0.175781V99.004Z" fill="#F179A2"/>
<path d="M43.5679 23.384H60.8959V28.664H43.5679V23.384Z" fill="#F58756"/>
</svg>
